<svg width="22" height="23" viewBox="0 0 22 23" fill="none" xmlns="http://www.w3.org/2000/svg">
<path d="M18.7758 12.557L12.3608 1.54097C11.6901 0.364172 10.1636 -0.0684751 8.96354 0.590014C8.54882 0.806337 8.21351 1.14294 7.99291 1.53318L1.53376 12.6349C1.01315 13.8801 1.63083 15.3165 2.9103 15.827C3.1662 15.9222 3.43974 15.9836 3.71328 16H16.6316C17.2934 15.9654 17.9022 15.6799 18.3522 15.1962C18.8023 14.7107 19.0317 14.0799 18.9964 13.431C18.9787 13.1532 18.917 12.8858 18.7758 12.557V12.557Z" fill="url(#paint0_linear_1_3494)"/>
<g filter="url(#filter0_bd_1_3494)">
<mask id="path-2-inside-1_1_3494" fill="white">
<path fill-rule="evenodd" clip-rule="evenodd" d="M10.1727 9.56333C10.5963 9.56333 10.9404 9.21635 10.9404 8.801V6.35309C10.9404 5.93688 10.5963 5.60028 10.1727 5.60028C9.74916 5.60028 9.3962 5.93688 9.3962 6.35309L9.3962 8.801C9.3962 9.21635 9.74916 9.56333 10.1727 9.56333ZM9.3962 11.7608C9.3962 12.1753 9.74916 12.5222 10.1727 12.5222C10.5963 12.5222 10.9404 12.1753 10.9404 11.7513C10.9404 11.3368 10.5963 10.9985 10.1727 10.9985C9.74916 10.9985 9.3962 11.3446 9.3962 11.7608Z"/>
</mask>
<path fill-rule="evenodd" clip-rule="evenodd" d="M10.1727 9.56333C10.5963 9.56333 10.9404 9.21635 10.9404 8.801V6.35309C10.9404 5.93688 10.5963 5.60028 10.1727 5.60028C9.74916 5.60028 9.3962 5.93688 9.3962 6.35309L9.3962 8.801C9.3962 9.21635 9.74916 9.56333 10.1727 9.56333ZM9.3962 11.7608C9.3962 12.1753 9.74916 12.5222 10.1727 12.5222C10.5963 12.5222 10.9404 12.1753 10.9404 11.7513C10.9404 11.3368 10.5963 10.9985 10.1727 10.9985C9.74916 10.9985 9.3962 11.3446 9.3962 11.7608Z" fill="url(#paint1_linear_1_3494)"/>
<path d="M10.9404 8.801H10.672H10.9404ZM9.3962 8.801H9.12784H9.3962ZM10.672 8.801C10.672 9.06756 10.4486 9.29496 10.1727 9.29496V9.83169C10.7439 9.83169 11.2088 9.36513 11.2088 8.801H10.672ZM10.672 6.35309V8.801H11.2088V6.35309H10.672ZM10.1727 5.86865C10.4532 5.86865 10.672 6.09022 10.672 6.35309H11.2088C11.2088 5.78354 10.7393 5.33192 10.1727 5.33192V5.86865ZM9.66457 6.35309C9.66457 6.09415 9.88816 5.86865 10.1727 5.86865V5.33192C9.61016 5.33192 9.12784 5.77961 9.12784 6.35309H9.66457ZM9.66457 8.801V6.35309H9.12784V8.801H9.66457ZM10.1727 9.29496C9.8928 9.29496 9.66457 9.06359 9.66457 8.801H9.12784C9.12784 9.3691 9.60552 9.83169 10.1727 9.83169V9.29496ZM10.1727 12.2539C9.8926 12.2539 9.66457 12.0223 9.66457 11.7608H9.12784C9.12784 12.3282 9.60572 12.7906 10.1727 12.7906V12.2539ZM10.672 11.7513C10.672 12.0284 10.4467 12.2539 10.1727 12.2539V12.7906C10.7459 12.7906 11.2088 12.3221 11.2088 11.7513H10.672ZM10.1727 11.2668C10.4528 11.2668 10.672 11.4897 10.672 11.7513H11.2088C11.2088 11.1839 10.7397 10.7301 10.1727 10.7301V11.2668ZM9.66457 11.7608C9.66457 11.4975 9.8926 11.2668 10.1727 11.2668V10.7301C9.60572 10.7301 9.12784 11.1916 9.12784 11.7608H9.66457Z" fill="url(#paint2_linear_1_3494)" mask="url(#path-2-inside-1_1_3494)"/>
</g>
<defs>
<filter id="filter0_bd_1_3494" x="-0.667511" y="-4.46343" width="21.6716" height="27.0494" filterUnits="userSpaceOnUse" color-interpolation-filters="sRGB">
<feFlood flood-opacity="0" result="BackgroundImageFix"/>
<feGaussianBlur in="BackgroundImageFix" stdDeviation="5.03186"/>
<feComposite in2="SourceAlpha" operator="in" result="effect1_backgroundBlur_1_3494"/>
<feColorMatrix in="SourceAlpha" type="matrix" values="0 0 0 0 0 0 0 0 0 0 0 0 0 0 0 0 0 0 127 0" result="hardAlpha"/>
<feOffset dx="3.35457" dy="3.35457"/>
<feGaussianBlur stdDeviation="3.35457"/>
<feColorMatrix type="matrix" values="0 0 0 0 1 0 0 0 0 0.376471 0 0 0 0 0.580392 0 0 0 1 0"/>
<feBlend mode="normal" in2="effect1_backgroundBlur_1_3494" result="effect2_dropShadow_1_3494"/>
<feBlend mode="normal" in="SourceGraphic" in2="effect2_dropShadow_1_3494" result="shape"/>
</filter>
<linearGradient id="paint0_linear_1_3494" x1="10.1745" y1="0.281677" x2="10.1745" y2="16" gradientUnits="userSpaceOnUse">
<stop stop-color="#FFC47F"/>
<stop offset="1" stop-color="#FF9E0D"/>
</linearGradient>
<linearGradient id="paint1_linear_1_3494" x1="10.1685" y1="5.99073" x2="8.75091" y2="5.85805" gradientUnits="userSpaceOnUse">
<stop stop-color="white" stop-opacity="0.75"/>
<stop offset="1" stop-color="white" stop-opacity="0.2"/>
</linearGradient>
<linearGradient id="paint2_linear_1_3494" x1="9.64201" y1="6.4067" x2="11.961" y2="7.04743" gradientUnits="userSpaceOnUse">
<stop stop-color="white" stop-opacity="0.25"/>
<stop offset="1" stop-color="white" stop-opacity="0"/>
</linearGradient>
</defs>
</svg>
