<svg width="22" height="18" viewBox="0 0 22 18" fill="none" xmlns="http://www.w3.org/2000/svg">
<path fill-rule="evenodd" clip-rule="evenodd" d="M7.625 1.5C7.41789 1.5 7.25 1.66789 7.25 1.875C7.25 2.91053 6.41053 3.75 5.375 3.75H3.875C2.83947 3.75 2 4.58947 2 5.625V14.25C2 15.4926 3.00736 16.5 4.25 16.5H17.75C18.9926 16.5 20 15.4926 20 14.25V5.625C20 4.58947 19.1605 3.75 18.125 3.75H16.625C15.5895 3.75 14.75 2.91053 14.75 1.875C14.75 1.66789 14.5821 1.5 14.375 1.5H7.625ZM5.75 1.875C5.75 0.839466 6.58947 0 7.625 0H14.375C15.4105 0 16.25 0.839466 16.25 1.875C16.25 2.08211 16.4179 2.25 16.625 2.25H18.125C19.989 2.25 21.5 3.76104 21.5 5.625V14.25C21.5 16.3211 19.8211 18 17.75 18H4.25C2.17893 18 0.5 16.3211 0.5 14.25V5.625C0.5 3.76104 2.01104 2.25 3.875 2.25H5.375C5.58211 2.25 5.75 2.08211 5.75 1.875ZM8.41382 13.6706C8.59808 13.2996 9.04818 13.1482 9.41916 13.3325C11.2621 14.2478 13.5357 13.4744 14.4842 11.5647C14.7679 10.9937 14.8986 10.3899 14.8937 9.79944L14.8938 9.78062L13.8796 9.76786C13.2508 9.75995 12.9103 9.02816 13.3093 8.54207L15.0098 6.47045C15.3148 6.09895 15.8855 6.10614 16.181 6.48519L17.8288 8.59893C18.2155 9.09491 17.8567 9.8179 17.2279 9.80999L16.3938 9.79949C16.3986 10.6171 16.2162 11.4497 15.8276 12.232C14.5227 14.8594 11.3607 15.9716 8.75191 14.6759C8.38094 14.4917 8.22957 14.0415 8.41382 13.6706ZM14.0344 5.91246C13.8502 6.28344 13.4001 6.43481 13.0291 6.25055C11.1862 5.33523 8.9125 6.10864 7.96402 8.01831C7.68038 8.58938 7.54968 9.19312 7.55453 9.78359C7.55458 9.78983 7.55455 9.79604 7.55445 9.80223L8.56863 9.815C9.19746 9.82291 9.53791 10.5547 9.1389 11.0408L7.43843 13.1124C7.13349 13.4839 6.56272 13.4767 6.26722 13.0977L4.61941 10.9839C4.23276 10.4879 4.59151 9.76495 5.22034 9.77287L6.05449 9.78336C6.0497 8.9658 6.23211 8.13326 6.6206 7.35107C7.92558 4.72363 11.0875 3.6114 13.6963 4.90713C14.0673 5.09139 14.2187 5.54149 14.0344 5.91246Z" fill="#8E989A"/>
</svg>
