<svg width="20" height="21" viewBox="0 0 20 21" fill="none" xmlns="http://www.w3.org/2000/svg">
<path fill-rule="evenodd" clip-rule="evenodd" d="M10 2C8.60751 2 7.50626 2.78814 7.13861 3.76434C7.04836 4.00398 7 4.25836 7 4.52273C7 4.93694 6.66421 5.27273 6.25 5.27273C5.83579 5.27273 5.5 4.93694 5.5 4.52273C5.5 4.07278 5.58275 3.63956 5.73487 3.23566C6.3514 1.59864 8.06884 0.5 10 0.5C12.3861 0.5 14.5 2.2084 14.5 4.52273V9.97727C14.5 10.3915 14.1642 10.7273 13.75 10.7273C13.3358 10.7273 13 10.3915 13 9.97727V4.52273C13 3.2221 11.756 2 10 2ZM6.78014 6.71948L1.53033 1.46967C1.23744 1.17678 0.762563 1.17678 0.46967 1.46967C0.176777 1.76256 0.176777 2.23744 0.46967 2.53033L5.5 7.56066V9.97727C5.5 12.2916 7.61386 14 10 14C10.583 14 11.1428 13.9008 11.658 13.7186L13.3813 15.442C12.366 15.9648 11.2024 16.25 10 16.25C8.18578 16.25 6.4597 15.6006 5.19842 14.4655C3.93975 13.3327 3.25 11.8143 3.25 10.25C3.25 9.83579 2.91421 9.5 2.5 9.5C2.08579 9.5 1.75 9.83579 1.75 10.25C1.75 12.2662 2.6406 14.1815 4.19498 15.5804C5.56658 16.8149 7.35809 17.5621 9.25 17.719V19.25H5.5C5.08579 19.25 4.75 19.5858 4.75 20C4.75 20.4142 5.08579 20.75 5.5 20.75H10H14.5C14.9142 20.75 15.25 20.4142 15.25 20C15.25 19.5858 14.9142 19.25 14.5 19.25H10.75V17.719C12.082 17.6085 13.3642 17.2055 14.4851 16.5458L18.4697 20.5303C18.7626 20.8232 19.2374 20.8232 19.5303 20.5303C19.8232 20.2374 19.8232 19.7626 19.5303 19.4697L15.7181 15.6575C15.7473 15.632 15.7762 15.6063 15.805 15.5804C17.3594 14.1815 18.25 12.2662 18.25 10.25C18.25 9.83579 17.9142 9.5 17.5 9.5C17.0858 9.5 16.75 9.83579 16.75 10.25C16.75 11.8143 16.0602 13.3327 14.8016 14.4655C14.7532 14.509 14.7042 14.5518 14.6545 14.5939L6.78052 6.71986C6.78039 6.71973 6.78027 6.71961 6.78014 6.71948ZM10.4153 12.476C10.2798 12.4918 10.1412 12.5 10 12.5C8.244 12.5 7 11.2779 7 9.97727V9.06066L10.4153 12.476Z" fill="#000000"/>
</svg>
