<svg width="118" height="29" viewBox="0 0 118 29" fill="none" xmlns="http://www.w3.org/2000/svg">
<mask id="mask0_1_2791" style="mask-type:alpha" maskUnits="userSpaceOnUse" x="0" y="0" width="34" height="29">
<path d="M0 0H33.1245V28.0168H0V0Z" fill="white"/>
</mask>
<g mask="url(#mask0_1_2791)">
<path fill-rule="evenodd" clip-rule="evenodd" d="M9.61783 0.510462L9.64141 0.508412C9.63356 0.509276 9.6257 0.509959 9.61783 0.510462ZM23.4832 0.508412L23.5068 0.510462C23.499 0.509594 23.4911 0.50891 23.4832 0.508412ZM33.0364 10.5546C32.958 10.3736 32.8281 10.2197 32.6627 10.1121C32.4974 10.0046 32.304 9.94812 32.1067 9.94985H28.429C27.3115 9.94971 26.207 10.1886 25.1896 10.6506C24.1722 11.1126 23.2653 11.7869 22.53 12.6282L23.2946 11.7436C24.0695 10.8448 24.4959 9.6975 24.496 8.51073V1.00862C24.4951 0.740659 24.3881 0.483965 24.1982 0.294871C24.0083 0.105777 23.7512 -0.000269191 23.4832 3.53935e-06C23.3389 -0.00038237 23.1962 0.0307941 23.0652 0.091349C22.9342 0.151904 22.818 0.240373 22.7247 0.35056L16.6833 7.35143L16.5623 7.49186L16.4403 7.35143L10.4009 0.35056C10.3077 0.240373 10.1915 0.151904 10.0605 0.091349C9.92945 0.0307941 9.78677 -0.00038237 9.64243 3.53935e-06C9.37429 -0.000541043 9.1169 0.105385 8.92682 0.294509C8.73673 0.483632 8.6295 0.740481 8.62869 1.00862V8.51175C8.62894 9.69819 9.05525 10.8451 9.83001 11.7436L10.5936 12.6282C9.85851 11.7869 8.95186 11.1126 7.93458 10.6506C6.9173 10.1887 5.81295 9.94973 4.69569 9.94985H1.01793C0.82068 9.94812 0.627296 10.0046 0.461945 10.1121C0.296594 10.2197 0.16661 10.3736 0.0882385 10.5546C0.00707112 10.7345 -0.0192043 10.9343 0.0127051 11.129C0.0446144 11.3238 0.133289 11.5048 0.267617 11.6493L12.8077 26.2353C12.9266 26.3819 14.007 27.657 15.9852 27.9348L16.5592 28.0168H16.5644V28.0158L17.1394 27.9338C19.1177 27.657 20.1991 26.3819 20.317 26.2353L32.8673 11.6391C32.9983 11.4946 33.084 11.3148 33.1139 11.122C33.1438 10.9293 33.1165 10.732 33.0354 10.5546" fill="white"/>
</g>
<path fill-rule="evenodd" clip-rule="evenodd" d="M32.1065 10.4583C32.5473 10.4583 32.7779 10.981 32.4806 11.307L19.9242 25.9094C19.9242 25.9094 18.9432 27.1671 17.0685 27.4305V19.7357L22.8783 13.0003C23.5665 12.2027 24.4185 11.5627 25.3763 11.124C26.3341 10.6854 27.3752 10.4583 28.4287 10.4583H32.1065ZM4.69548 10.4583C5.74882 10.4583 6.78978 10.6854 7.74744 11.1241C8.70509 11.5627 9.55693 12.2027 10.2449 13.0003L16.0557 19.7367V27.4315C14.181 27.1681 13.199 25.9104 13.199 25.9104L0.642556 11.307C0.575975 11.2344 0.531995 11.144 0.516001 11.0469C0.500007 10.9497 0.512693 10.85 0.552506 10.7599C0.592318 10.6698 0.65753 10.5933 0.740157 10.5398C0.822783 10.4862 0.919239 10.4579 1.01771 10.4583H4.69445H4.69548ZM23.9853 1.00863V8.51176C23.9851 9.57588 23.6028 10.6046 22.908 11.4105L17.0674 18.1818V7.68457L23.1079 0.683698C23.1744 0.606481 23.2629 0.551469 23.3616 0.526055C23.4603 0.50064 23.5644 0.50604 23.6599 0.54153C23.7555 0.577019 23.8379 0.640897 23.896 0.72458C23.9542 0.808264 23.9853 0.907744 23.9853 1.00965V1.00863ZM9.13688 1.00863C9.13688 0.545321 9.71192 0.332117 10.0143 0.682673L16.0547 7.68354V18.1818L10.2142 11.4105C9.51911 10.6043 9.13679 9.57521 9.13688 8.51073V1.00863Z" fill="#E10600"/>
<path fill-rule="evenodd" clip-rule="evenodd" d="M117.788 15.7761L111.277 23.3479L117.788 15.7761ZM117.65 15.6572L111.133 23.2361C110.828 23.578 110.424 23.8163 109.977 23.9178V20.2144L112.947 16.7724C113.286 16.3782 113.707 16.0619 114.18 15.8452C114.653 15.6285 115.167 15.5165 115.687 15.5167H117.594C117.64 15.5167 117.66 15.5475 117.668 15.5659C117.675 15.5812 117.677 15.5983 117.674 15.6148C117.67 15.6313 117.662 15.6464 117.65 15.6582V15.6572ZM117.855 15.6356C117.86 15.5993 117.857 15.5624 117.847 15.5272C117.837 15.492 117.82 15.4591 117.797 15.4306C117.772 15.4005 117.741 15.3763 117.706 15.3598C117.671 15.3433 117.633 15.3349 117.594 15.3353H115.687C115.141 15.335 114.601 15.4526 114.104 15.6801C113.607 15.9076 113.165 16.2396 112.808 16.6535L109.796 20.1467V24.1371C110.368 24.0606 110.894 23.7805 111.277 23.3479L117.788 15.7761C117.824 15.7372 117.847 15.6882 117.854 15.6356" fill="white"/>
<path fill-rule="evenodd" clip-rule="evenodd" d="M117.668 15.5659C117.662 15.5512 117.652 15.5386 117.639 15.5298C117.625 15.521 117.61 15.5165 117.594 15.5167H115.687C115.167 15.5165 114.653 15.6285 114.18 15.8452C113.707 16.0619 113.286 16.3782 112.947 16.7724L109.977 20.2144L109.796 20.4225V23.9567L109.977 23.9178C110.424 23.8163 110.828 23.578 111.133 23.2361L117.65 15.6572C117.684 15.6192 117.676 15.5844 117.668 15.5649" fill="#E22C2E"/>
<path fill-rule="evenodd" clip-rule="evenodd" d="M41.7083 27.004L36 10.001H39.6429L43.7973 23.069L47.9261 10H51.5936L45.8617 27.004H41.7083ZM59.4524 18.2832C60.8854 18.2832 61.9299 17.1659 61.9299 15.7093C61.9299 14.2272 60.8854 13.1345 59.4524 13.1345H56.4645V18.2842H59.4524V18.2832ZM59.4524 10.001C61.0801 10.001 62.4649 10.5597 63.5822 11.6523C64.6995 12.746 65.2581 14.1062 65.2581 15.7093C65.2581 17.3125 64.6995 18.6717 63.5822 19.7653C62.4649 20.858 61.0801 21.4166 59.4524 21.4166H56.4645V27.003H53.1127V10.001H59.4524ZM74.0425 23.8695C75.1844 23.8695 76.0105 23.0208 76.0105 21.8543C76.0105 20.7135 75.1844 19.8627 74.0425 19.8627H70.1813V23.8705H74.0435L74.0425 23.8695ZM70.1813 13.1355V16.8758H73.5331C74.5786 16.8758 75.3545 16.0743 75.3545 15.0062C75.3545 13.9371 74.6022 13.1355 73.5331 13.1355H70.1813ZM79.3388 22.0737C79.3388 23.5067 78.8293 24.6977 77.8084 25.6202C76.7885 26.5428 75.5247 27.004 74.0435 27.004H66.8295V10.001H73.5331C74.9906 10.001 76.2053 10.4623 77.2016 11.3612C78.1969 12.2602 78.7084 13.401 78.7084 14.7858C78.7084 16.1952 78.1723 17.3361 77.1042 18.1868C78.5854 19.0366 79.3388 20.3496 79.3388 22.0727V22.0737ZM104.112 15.8539C104.986 16.7538 105.424 17.9675 105.424 19.547V27.003H102.29V19.9355C102.29 18.3078 101.343 17.4345 99.8853 17.4345C98.2585 17.4345 97.2141 18.4287 97.2141 20.446V27.003H94.0806V14.8596H97.2141V16.2198C97.9664 15.0779 99.1821 14.5203 100.832 14.5203C102.168 14.5203 103.262 14.957 104.112 15.8559V15.8539ZM109.585 20.203V27.004H106.452V10.001H109.585V20.203ZM86.5159 24.4374C86.0487 24.4454 85.5846 24.3602 85.1506 24.1869C84.7166 24.0136 84.3215 23.7557 83.9883 23.4281C83.655 23.1005 83.3904 22.7098 83.2097 22.2789C83.029 21.8479 82.936 21.3853 82.936 20.918C82.936 20.4507 83.029 19.9881 83.2097 19.5571C83.3904 19.1261 83.655 18.7355 83.9883 18.4079C84.3215 18.0803 84.7166 17.8223 85.1506 17.649C85.5846 17.4757 86.0487 17.3906 86.5159 17.3986C87.4389 17.4143 88.3188 17.7921 88.966 18.4504C89.6131 19.1087 89.9758 19.9948 89.9758 20.918C89.9758 21.8411 89.6131 22.7273 88.966 23.3856C88.3188 24.0439 87.4389 24.4216 86.5159 24.4374ZM89.919 14.8586V16.2916C88.9719 15.1025 87.6599 14.5183 85.9594 14.5183C84.3316 14.5183 82.9479 15.1507 81.7824 16.3889C80.6405 17.6282 80.0573 19.1339 80.0573 20.9308C80.0573 22.7287 80.6405 24.259 81.7824 25.4983C82.9479 26.7365 84.3316 27.3433 85.9594 27.3433C87.6599 27.3433 88.9719 26.7611 89.919 25.57V27.004H93.0515V14.8586H89.919Z" fill="#01AD53"/>
<path fill-rule="evenodd" clip-rule="evenodd" d="M117.593 15.3353H115.686C114.581 15.3353 113.531 15.8171 112.808 16.6535L109.796 20.1467V24.1371C110.368 24.0606 110.894 23.7804 111.277 23.3479L117.788 15.7761C117.822 15.7383 117.845 15.6914 117.853 15.641C117.861 15.5906 117.855 15.5389 117.834 15.4923C117.813 15.4456 117.779 15.4059 117.737 15.378C117.694 15.3501 117.644 15.3353 117.593 15.3353Z" fill="#DE1F26"/>
<path fill-rule="evenodd" clip-rule="evenodd" d="M117.951 15.4409C117.921 15.3713 117.871 15.3121 117.808 15.2708C117.744 15.2294 117.67 15.2076 117.594 15.2082H115.688C115.123 15.208 114.565 15.3297 114.051 15.5649C113.538 15.8002 113.082 16.1435 112.713 16.5714L109.669 20.0996V20.4932L109.923 20.1939L112.905 16.7375C113.249 16.3376 113.677 16.0167 114.157 15.7969C114.637 15.577 115.159 15.4632 115.687 15.4634H117.593C117.675 15.4634 117.709 15.5249 117.718 15.5434C117.729 15.5681 117.733 15.5956 117.728 15.6223C117.723 15.649 117.711 15.6737 117.692 15.693L111.177 23.2699C111.172 23.2751 110.736 23.8193 109.923 23.9854L109.7 24.0264L109.67 24.0202V24.2827L109.813 24.2622C110.417 24.1831 110.971 23.8882 111.373 23.4319L117.882 15.8611C117.934 15.8056 117.968 15.7361 117.98 15.6613C117.992 15.5866 117.982 15.5099 117.951 15.4409ZM113.169 21.6043L112.286 22.5955C112.028 22.8843 111.884 23.2559 111.878 23.6426C111.872 24.0293 112.005 24.4052 112.253 24.7019C113.019 25.6272 113.779 26.5587 114.53 27.4961H118L113.169 21.6043Z" fill="#01AD53"/>
</svg>
